<svg fill="none" height="119" viewBox="0 0 600 119" width="600" xmlns="http://www.w3.org/2000/svg" xmlns:xlink="http://www.w3.org/1999/xlink"><linearGradient id="a"><stop offset=".23" stop-color="#039bc6"/><stop offset="1" stop-color="#463785"/></linearGradient><radialGradient id="b" cx="0" cy="0" gradientTransform="matrix(51.90038347 -29.62747167 32.99676834 57.80260123 31.844 67.8612)" gradientUnits="userSpaceOnUse" r="1" xlink:href="#a"/><radialGradient id="c" cx="0" cy="0" gradientTransform="matrix(51.90038347 -29.62747167 32.99676834 57.80260123 31.8441 67.8604)" gradientUnits="userSpaceOnUse" r="1" xlink:href="#a"/><radialGradient id="d" cx="0" cy="0" gradientTransform="matrix(51.90038347 -29.62747167 32.99676834 57.80260123 31.8441 67.8596)" gradientUnits="userSpaceOnUse" r="1" xlink:href="#a"/><radialGradient id="e" cx="0" cy="0" gradientTransform="matrix(51.90038347 -29.62747167 32.99676834 57.80260123 31.8441 67.8607)" gradientUnits="userSpaceOnUse" r="1" xlink:href="#a"/><radialGradient id="f" cx="0" cy="0" gradientTransform="matrix(48.71027632 -28.24771902 31.46206637 54.25308661 32.6807 61.3008)" gradientUnits="userSpaceOnUse" r="1" xlink:href="#a"/><radialGradient id="g" cx="0" cy="0" gradientTransform="matrix(48.71018981 -28.24766885 31.4620162 54.2530001 32.6807 61.2996)" gradientUnits="userSpaceOnUse" r="1" xlink:href="#a"/><radialGradient id="h" cx="0" cy="0" gradientTransform="matrix(48.71027632 -28.24771902 31.4620162 54.2530001 32.6807 61.2999)" gradientUnits="userSpaceOnUse" r="1" xlink:href="#a"/><radialGradient id="i" cx="0" cy="0" gradientTransform="matrix(48.71018981 -28.24766885 31.4620162 54.2530001 32.6807 61.3004)" gradientUnits="userSpaceOnUse" r="1" xlink:href="#a"/><radialGradient id="j" cx="0" cy="0" gradientTransform="matrix(48.71027632 -28.24771902 31.4620162 54.2530001 32.6805 61.3007)" gradientUnits="userSpaceOnUse" r="1" xlink:href="#a"/><linearGradient id="k"><stop offset=".22" stop-color="#039bc6"/><stop offset="1" stop-color="#463785"/></linearGradient><radialGradient id="l" cx="0" cy="0" gradientTransform="matrix(45.211014 -25.89259186 28.83751046 50.35313175 40.0242 64.8239)" gradientUnits="userSpaceOnUse" r="1" xlink:href="#k"/><radialGradient id="m" cx="0" cy="0" gradientTransform="matrix(45.211014 -25.89259186 28.83751046 50.35313175 40.0243 64.8236)" gradientUnits="userSpaceOnUse" r="1" xlink:href="#k"/><radialGradient id="n" cx="0" cy="0" gradientTransform="matrix(45.211014 -25.89259186 28.83751046 50.35313175 40.0242 64.8235)" gradientUnits="userSpaceOnUse" r="1" xlink:href="#k"/><radialGradient id="o" cx="0" cy="0" gradientTransform="matrix(45.211014 -25.89259186 28.83751046 50.35313175 40.0242 64.8247)" gradientUnits="userSpaceOnUse" r="1" xlink:href="#k"/><radialGradient id="p" cx="0" cy="0" gradientTransform="matrix(45.211014 -25.89259186 28.83751046 50.35313175 40.0241 64.824)" gradientUnits="userSpaceOnUse" r="1" xlink:href="#k"/><radialGradient id="q" cx="0" cy="0" gradientTransform="matrix(42.55768304 -24.13684539 26.87978645 47.39399096 48.5263 60.8729)" gradientUnits="userSpaceOnUse" r="1" xlink:href="#a"/><radialGradient id="r" cx="0" cy="0" gradientTransform="matrix(42.55768304 -24.13684539 26.87978645 47.39399096 48.5263 60.872)" gradientUnits="userSpaceOnUse" r="1" xlink:href="#a"/><radialGradient id="s" cx="0" cy="0" gradientTransform="matrix(42.55768304 -24.13684539 26.87978645 47.39399096 48.5263 60.8717)" gradientUnits="userSpaceOnUse" r="1" xlink:href="#a"/><radialGradient id="t" cx="0" cy="0" gradientTransform="matrix(42.55768304 -24.13684539 26.87978645 47.39399096 48.5262 60.8728)" gradientUnits="userSpaceOnUse" r="1" xlink:href="#a"/><linearGradient id="u"><stop offset=".22" stop-color="#5db754"/><stop offset="1" stop-color="#1c727d"/></linearGradient><radialGradient id="v" cx="0" cy="0" gradientTransform="matrix(51.06762271 -29.78175733 33.1616777 56.86326788 14.1456 79.5229)" gradientUnits="userSpaceOnUse" r="1" xlink:href="#u"/><radialGradient id="w" cx="0" cy="0" gradientTransform="matrix(51.06762271 -29.78175733 33.1616777 56.86326788 14.1456 79.523)" gradientUnits="userSpaceOnUse" r="1" xlink:href="#u"/><linearGradient id="x"><stop offset=".23" stop-color="#5db754"/><stop offset="1" stop-color="#1c727d"/></linearGradient><radialGradient id="y" cx="0" cy="0" gradientTransform="matrix(48.71837137 -27.72089265 30.86671736 54.24703377 18.7027 70.5021)" gradientUnits="userSpaceOnUse" r="1" xlink:href="#x"/><radialGradient id="z" cx="0" cy="0" gradientTransform="matrix(48.71837137 -27.72089265 30.86671736 54.24703377 18.7027 70.5026)" gradientUnits="userSpaceOnUse" r="1" xlink:href="#x"/><radialGradient id="A" cx="0" cy="0" gradientTransform="matrix(48.71837137 -27.72089265 30.86671736 54.24703377 18.7027 70.5024)" gradientUnits="userSpaceOnUse" r="1" xlink:href="#x"/><radialGradient id="B" cx="0" cy="0" gradientTransform="matrix(45.05830255 -25.58627739 28.49514551 50.180918 19.088 76.429)" gradientUnits="userSpaceOnUse" r="1" xlink:href="#u"/><radialGradient id="C" cx="0" cy="0" gradientTransform="matrix(45.05838951 -25.58632676 28.49514551 50.180918 19.088 76.4293)" gradientUnits="userSpaceOnUse" r="1" xlink:href="#u"/><radialGradient id="D" cx="0" cy="0" gradientTransform="matrix(45.05838951 -25.58632676 28.49514551 50.180918 19.0881 76.4298)" gradientUnits="userSpaceOnUse" r="1" xlink:href="#u"/><radialGradient id="E" cx="0" cy="0" gradientTransform="matrix(42.32924318 -24.29126567 27.04998973 47.13651437 26.3945 72.237)" gradientUnits="userSpaceOnUse" r="1" xlink:href="#u"/><radialGradient id="F" cx="0" cy="0" gradientTransform="matrix(42.32924318 -24.29126567 27.04998973 47.13651437 26.3945 72.2377)" gradientUnits="userSpaceOnUse" r="1" xlink:href="#u"/><radialGradient id="G" cx="0" cy="0" gradientTransform="matrix(42.32924318 -24.29126567 27.04998973 47.13651437 26.3947 72.238)" gradientUnits="userSpaceOnUse" r="1" xlink:href="#u"/><linearGradient id="H"><stop offset=".23" stop-color="#e42657"/><stop offset="1" stop-color="#982b86"/></linearGradient><radialGradient id="I" cx="0" cy="0" gradientTransform="matrix(51.06762271 -29.78175733 33.1616777 56.86326788 -4.78165 90.5611)" gradientUnits="userSpaceOnUse" r="1" xlink:href="#H"/><radialGradient id="J" cx="0" cy="0" gradientTransform="matrix(48.71837137 -27.72089265 30.86671736 54.24703377 -.814236 82.161)" gradientUnits="userSpaceOnUse" r="1" xlink:href="#H"/><radialGradient id="K" cx="0" cy="0" gradientTransform="matrix(45.05830255 -25.58627739 28.49514551 50.180918 -.023087 87.279)" gradientUnits="userSpaceOnUse" r="1" xlink:href="#H"/><radialGradient id="L" cx="0" cy="0" gradientTransform="matrix(42.32924318 -24.29126567 27.04998973 47.13651437 6.96464 83.3861)" gradientUnits="userSpaceOnUse" r="1" xlink:href="#H"/><clipPath id="M"><path d="m0 0h600v118.947h-600z"/></clipPath><g clip-path="url(#M)"><path d="m82.5857 89.9258v1.8756l8.0734 4.669v-1.8756z" fill="url(#b)"/><path d="m40.4494 7.49717-1.6208-.93662v9.35215l1.6208.9366z" fill="url(#c)"/><path d="m63.1667 80.5729 8.0829 4.6737v-1.8756l-8.0829-4.6737z" fill="url(#c)"/><path d="m40.4494 39.3063v-9.3521l-1.6208-.9366v9.3521z" fill="url(#d)"/><path d="m40.4494 52.4249-1.6208-.9366v15.012l13.0019 7.5189v-1.8756l-11.3811-6.5823z" fill="url(#e)"/><path d="m43.6887 54.298-1.6208-.9367v11.2608l9.7626 5.6433v-1.8756l-8.1418-4.7067z" fill="url(#f)"/><path d="m43.6887 31.8273-1.6208-.9367v9.3521l1.6208.9367z" fill="url(#g)"/><path d="m63.1667 74.9453v1.8756l8.0829 4.6737v-1.878z" fill="url(#h)"/><path d="m43.6887 18.7223v-9.35208l-1.6208-.93663v9.35211z" fill="url(#i)"/><path d="m82.5857 88.0494 8.0734 4.669v-1.8756l-8.0734-4.669z" fill="url(#j)"/><path d="m46.9256 61.8096v-5.6386l-1.6185-.9366v7.5237l6.5234 3.7701v-1.8827z" fill="url(#l)"/><path d="m63.1667 73.0819 8.0829 4.6713v-1.8803l-8.0829-4.6737z" fill="url(#m)"/><path d="m46.9256 20.5954v-9.3521l-1.6185-.9367v9.3521z" fill="url(#n)"/><path d="m45.3071 42.1177 1.6185.9343v-9.3497l-1.6185-.9367z" fill="url(#o)"/><path d="m82.5857 84.3077 8.0734 4.6666v-1.8756l-8.0734-4.669z" fill="url(#p)"/><path d="m50.1648 44.925v-9.3497l-1.6184-.9366v9.3497z" fill="url(#q)"/><path d="m63.1667 69.326 8.0829 4.676v-1.8732l-8.0829-4.6737z" fill="url(#r)"/><path d="m51.8305 62.7696v-1.8685l-1.6657-.9626v-1.8945l-1.6184-.9366v3.763z" fill="url(#r)"/><path d="m48.5464 21.5318 1.6184.9366v-9.3521l-1.6184-.9366z" fill="url(#s)"/><path d="m82.5857 80.5592 8.0734 4.669v-1.8733l-8.0734-4.6713z" fill="url(#t)"/><path d="m38.8286 6.5611 51.8306 29.9697v59.9394l11.3358-6.5541v-59.9464l-51.8301-29.9697z" fill="#009ac6"/><path d="m21.0376 41.2023-1.6184-.9367v37.4745l32.4115 18.7396v-1.8756l-30.7931-17.8053z" fill="url(#v)"/><path d="m63.167 101.158v1.878l8.0828 4.672v-1.876z" fill="url(#w)"/><path d="m21.0376 18.728-1.6066-.9272-.0118 9.345 1.6184.9366z" fill="url(#w)"/><path d="m24.2769 29.9552v-9.3545l-1.6185-.9366v9.3544z" fill="url(#y)"/><path d="m63.167 99.292 8.0828 4.671v-1.875l-8.0828-4.6739z" fill="url(#z)"/><path d="m24.2769 74.9277v-31.8524l-1.6185-.9366v33.728l29.1723 16.8687v-1.8756z" fill="url(#A)"/><path d="m27.5161 31.8258v-9.3521l-1.6208-.9366v9.3521z" fill="url(#B)"/><path d="m27.5161 44.9483-1.6208-.9366v29.9909l25.9353 14.9931v-1.8803l-24.3145-14.0588z" fill="url(#C)"/><path d="m63.167 95.5479 8.0828 4.6741v-1.8784l-8.0828-4.6737z" fill="url(#D)"/><path d="m30.7553 33.6989v-9.3498l-1.6208-.9389v9.3521z" fill="url(#E)"/><path d="m30.7553 46.8194-1.6208-.9366v26.2326l22.6961 13.127v-1.8709l-21.0753-12.188z" fill="url(#F)"/><path d="m63.167 91.799 8.0828 4.6761v-1.8756l-8.0828-4.6737z" fill="url(#G)"/><path d="m30.7554 11.2441c-3.6639 2.121-7.6628 4.4355-11.3221 6.5541 16.0124 9.2601 35.6674 20.627 51.8188 29.9696v59.9392c3.6168-2.092 7.729-4.468 11.3363-6.554v-59.9392z" fill="#5cb650"/><path d="m1.61845 88.0351v-58.0614l-1.61845-.9366v59.9394l51.8306 29.9695v-1.875z" fill="url(#I)"/><path d="m4.86715 31.8503-1.62081-.9343v56.1882l48.58426 28.0938v-1.878l-46.96345-27.1548z" fill="url(#J)"/><path d="m8.10405 33.7218-1.61845-.9366v52.4463l45.345 26.2205v-1.878l-43.72655-25.2815z" fill="url(#K)"/><path d="m11.3433 35.5968-1.61845-.9366v48.7022l42.10575 24.3456v-1.876l-40.4873-23.4086z" fill="url(#L)"/><path d="m11.3433 22.4746 51.8235 29.9697v59.9467c-3.6427 2.107-7.6817 4.442-11.3362 6.554v-59.9396c-17.1353-9.9065-34.6953-20.0584-51.8306-29.9673l11.3433-6.5611z" fill="#e42657"/><g fill="#fff"><path d="m533.028 101.161v-31.4297l.037-26.0085c0-7.1603-2.878-14.0305-7.993-19.0982-5.122-5.0606-12.07-7.9058-19.308-7.9058s-14.193 2.8476-19.306 7.9058c-5.122 5.0677-8.002 11.9402-8.002 19.0982v57.4412h13.268v-29.1725h28.028v29.1725h13.276zm-41.29-57.4405c0-1.8284.356-3.6404 1.069-5.3319 1.062-2.5457 2.857-4.7115 5.167-6.2379 2.302-1.5265 5.023-2.3404 7.797-2.3404 2.775 0 5.495.8163 7.805 2.3404 2.302 1.5264 4.107 3.6922 5.166 6.2379.706 1.6915 1.069 3.5035 1.069 5.3319v15.0969h-28.113l.052-15.0969h-.014z"/><path d="m462.148 101.16v-57.4484c0-3.5648-.712-7.0919-2.083-10.3831-1.363-3.2841-3.371-6.2615-5.91-8.7764-3.819-3.7678-8.691-6.337-13.988-7.3704-5.296-1.0357-10.782-.4907-15.769 1.5548-4.988 2.0549-9.244 5.5136-12.245 9.9608-2.994 4.4472-4.591 9.673-4.584 15.0143v57.4484h13.276v-57.4484c.13-3.6167 1.651-7.0471 4.275-9.5597 2.614-2.5079 6.122-3.9187 9.76-3.9187s7.153 1.3967 9.76 3.9187c2.6 2.5386 4.115 5.9595 4.228 9.5597v57.4484h13.283z"/><path d="m361.689 101.161v-57.4485c0-3.5648-.699-7.0919-2.069-10.3831-1.765-4.2749-4.622-8.0191-8.274-10.8903-3.652-2.8689-7.993-4.7657-12.601-5.4971-4.077-.6653-9.326-.2878-13.714 1.3-4.379 1.5854-8.284 4.2584-11.322 7.7643-3.653-4.1759-8.501-7.1438-13.904-8.5193-5.402-1.366-11.1-1.064-16.321.8611-5.221 1.9252-9.73 5.391-12.912 9.9231-3.176 4.5321-4.879 9.923-4.879 15.4366v57.4412h13.268v-57.4317c.137-3.5955 1.675-7 4.297-9.5008 2.621-2.4914 6.115-3.8975 9.76-3.8975s7.139 1.3896 9.76 3.8975c2.621 2.5008 4.159 5.8982 4.296 9.5008v57.4407h13.276v-57.4407c-.014-3.2181 1.106-6.337 3.168-8.8284s4.926-4.1924 8.116-4.8247c3.19-.6346 6.502-.1439 9.374 1.3755 2.864 1.517 5.107 3.9801 6.358 6.948.705 1.6916 1.061 3.5035 1.068 5.339v57.4413h13.276-.014z"/><path d="m236.086 17.7793v57.4409c.045 1.8497-.28 3.6923-.955 5.4216-.682 1.7293-1.706 3.3006-3.008 4.6289-1.312 1.3282-2.871 2.3781-4.591 3.0953-1.727.7172-3.577 1.0876-5.448 1.0876s-3.728-.3704-5.447-1.0876c-1.727-.7243-3.289-1.7742-4.592-3.0953-1.311-1.3283-2.333-2.8996-3.008-4.6289-.681-1.7293-1.007-3.5719-.955-5.4216v-57.4409h-13.276v57.4315c-.014 3.5719.689 7.099 2.062 10.3996 1.371 3.3006 3.388 6.2992 5.934 8.8283 3.175 3.1426 7.092 5.4594 11.388 6.7523 4.296 1.29 8.85 1.51 13.261.642 4.41-.869 8.524-2.8031 11.995-5.6272 3.47-2.8169 6.184-6.4502 7.896-10.5577 1.371-3.2935 2.084-6.8277 2.084-10.376v-1.4415l-.038-56.0277h-13.276l-.016-.0142-.007-.007z"/><path d="m377.994 17.8242v83.3268h13.268v-83.3268z"/><path d="m155.159 17.7793v56.2778c0 3.6922 1.47 7.2264 4.1 9.8405 2.629 2.6117 6.198 4.0862 9.926 4.0933h9.274l8.411 13.1791h-17.732c-3.601 0-7.161-.71-10.473-2.0694-3.327-1.366-6.335-3.369-8.873-5.8816-2.539-2.515-4.554-5.5065-5.927-8.7906-1.37-3.2841-2.076-6.8112-2.069-10.3689v-56.2802h13.358z"/><path d="m549.356 101.161v-56.2613c0-3.5577.698-7.0754 2.069-10.3689 1.364-3.2841 3.379-6.2757 5.917-8.7906 2.539-2.515 5.554-4.5156 8.873-5.884 3.327-1.366 6.88-2.0691 10.473-2.0691h23.309l-8.413 13.1788h-14.851c-3.728.0142-7.297 1.4887-9.926 4.0934-2.628 2.614-4.107 6.1553-4.1 9.8404v56.2613z"/></g></g></svg>